# xmcd
# 
# Track frame offsets:
#     150
#     17298
#     38050
#     56531
#     70888
#     88774
#     110075
#     132018
#     149698
#     166570
#     192007
# 
# Disc length: 2764
# 
# Revision: 3
# Processed by: cddbd v1.5.2PL0 Copyright (c) Steve Scherf et al.
# Submitted via: fre:ac v1.0.31
# 
DISCID=8c0aca0b
DTITLE=Ruthie Foster - The Truth According to Ruthie Foster
DYEAR=2009
DGENRE=Blues
TTITLE0=Stone Love
TTITLE1=I Really Love You
TTITLE2=When It Don't Come Easy
TTITLE3=(You Keep Me) Hangin' On
TTITLE4=Truth!
TTITLE5=Love In The Middle
TTITLE6=Nickel And A Nail
TTITLE7=Dues Paid In Full
TTITLE8=Joy On The Other Side
TTITLE9=Tears Of Pain
TTITLE10=Thanks For The Joy
EXTD=
EXTT0=
EXTT1=
EXTT2=
EXTT3=
EXTT4=
EXTT5=
EXTT6=
EXTT7=
EXTT8=
EXTT9=
EXTT10=
PLAYORDER=
